<svg viewBox="0 0 200 200" xmlns="http://www.w3.org/2000/svg">
  <path fill="#FF0066" d="M40.6,-71.4C52.9,-63.3,63.1,-52.8,70.3,-40.5C77.6,-28.2,81.8,-14.1,80.9,-0.5C79.9,13,73.8,26.1,65.8,37C57.8,47.9,47.8,56.7,36.5,66.4C25.2,76,12.6,86.5,0,86.6C-12.7,86.6,-25.3,76.2,-36.8,66.7C-48.2,57.1,-58.4,48.4,-68.6,37.4C-78.9,26.4,-89.1,13.2,-90.7,-0.9C-92.2,-15,-85,-30,-74.7,-40.8C-64.5,-51.7,-51.1,-58.5,-38.1,-66.1C-25.1,-73.7,-12.6,-82.2,0.8,-83.6C14.2,-85,28.4,-79.4,40.6,-71.4Z" transform="translate(100 100)" />
</svg>